<svg width="459" height="175" viewBox="0 0 459 175" fill="none" xmlns="http://www.w3.org/2000/svg">
<g filter="url(#filter0_d_2217_497)">
<ellipse cx="229.5" cy="83.5" rx="225.5" ry="83.5" fill="#FFEEC3"/>
<path d="M229.5 6C291.248 6 346.886 15.2776 386.869 30.083C406.884 37.4943 422.662 46.1761 433.327 55.5127C444.004 64.8596 449 74.3336 449 83.5C449 92.6664 444.004 102.14 433.327 111.487C422.662 120.824 406.884 129.506 386.869 136.917C346.886 151.722 291.248 161 229.5 161C167.752 161 112.114 151.722 72.1309 136.917C52.1159 129.506 36.3376 120.824 25.6729 111.487C14.9964 102.14 10 92.6664 10 83.5C10 74.3336 14.9964 64.8596 25.6729 55.5127C36.3376 46.1761 52.1159 37.4943 72.1309 30.083C112.114 15.2776 167.752 6 229.5 6Z" stroke="#DAAB6E" stroke-width="12"/>
</g>
<defs>
<filter id="filter0_d_2217_497" x="0" y="0" width="459" height="175" filterUnits="userSpaceOnUse" color-interpolation-filters="sRGB">
<feFlood flood-opacity="0" result="BackgroundImageFix"/>
<feColorMatrix in="SourceAlpha" type="matrix" values="0 0 0 0 0 0 0 0 0 0 0 0 0 0 0 0 0 0 127 0" result="hardAlpha"/>
<feOffset dy="4"/>
<feGaussianBlur stdDeviation="2"/>
<feComposite in2="hardAlpha" operator="out"/>
<feColorMatrix type="matrix" values="0 0 0 0 0 0 0 0 0 0 0 0 0 0 0 0 0 0 0.25 0"/>
<feBlend mode="normal" in2="BackgroundImageFix" result="effect1_dropShadow_2217_497"/>
<feBlend mode="normal" in="SourceGraphic" in2="effect1_dropShadow_2217_497" result="shape"/>
</filter>
</defs>
</svg>
